[imgw=http://www.covershut.com/covers/Shame-2011-Front-Cover-61205.jpg]

Format                           : AVI
Format/Info                      : Audio Video Interleave
Format profile                   : OpenDML
File size                        : 2.42 GiB
Duration                         : 1h 35mn
Overall bit rate                 : 3 638 Kbps
Writing application              : VirtualDubMod 1.5.10.2 (build 2540/release)
Writing library                  : VirtualDubMod build 2540/release

Video
ID                               : 0
Format                           : MPEG-4 Visual
Format profile                   : Advanced Simple@L5
Format settings, BVOP            : 1
Format settings, QPel            : No
Format settings, GMC             : No warppoints
Format settings, Matrix          : Default (H.263)
Muxing mode                      : Packed bitstream
Codec ID                         : XVID
Codec ID/Hint                    : XviD
Duration                         : 1h 35mn
Bit rate                         : 3 498 Kbps
Width                            : 1 280 pixels
Height                           : 512 pixels
Display aspect ratio             : 2.500
Frame rate                       : 25.000 fps
Color space                      : YUV
Chroma subsampling               : 4:2:0
Bit depth                        : 8 bits
Scan type                        : Progressive
Compression mode                 : Lossy
Bits/(Pixel*Frame)               : 0.214
Stream size                      : 2.33 GiB (96%)
Writing library                  : XviD 64

Audio
ID                               : 1
Format                           : MPEG Audio
Format version                   : Version 1
Format profile                   : Layer 3
Mode                             : Joint stereo
Mode extension                   : MS Stereo
Codec ID                         : 55
Codec ID/Hint                    : MP3
Duration                         : 1h 35mn
Bit rate mode                    : Constant
Bit rate                         : 128 Kbps
Channel(s)                       : 2 channels
Sampling rate                    : 44.1 KHz
Compression mode                 : Lossy
Stream size                      : 87.1 MiB (4%)
Alignment                        : Split accross interleaves
Interleave, duration             : 40 ms (1.00 video frame)
Interleave, preload duration     : 500 ms










 
http://www.imdb.com/title/tt1723811/












Ratings: 8.0/10 from 6,237 users   Metascore: 72/100 
Reviews: 86 user | 198 critic | 39 from Metacritic.com

In New York City, Brandon's carefully cultivated private life -- which allows him to indulge his sexual addiction -- is disrupted when his sister Sissy arrives unannounced for an indefinite stay.
Director:
Steve McQueen
Writers:
Abi Morgan (screenplay), Steve McQueen (screenplay)
Stars:
Michael Fassbender, Carey Mulligan and James 









Source Used





Shame 2011 HDTS MD x264 720p P76.......... Thanks

INSPiRAL........................................Thanks 


Basically not far off the same as my regular cam copy of this ....Vid movement at start had to crop away black borders but due to movement time to time the border will reappear but not too often so never went for a bigger crop as didnt want to lose too much vid


Check out the sample provided !


Enjoy

[imgw=http://i.imgur.com/lpEiO.jpg]
[imgw=http://i.imgur.com/9RVsd.jpg]
[imgw=http://i.imgur.com/7MiCr.jpg]
[imgw=http://i.imgur.com/xYd2w.png]

Greetz to EMBER,ETRG,BHRG,CreWSaDe,RemixHD,LEGiTiMATE,iNSPiRAL,EXQUiSiTE.......and maybe many more 